<svg width="181" height="48" viewBox="0 0 181 48" fill="none" xmlns="http://www.w3.org/2000/svg">
<path d="M59.6499 31.562V16.4115H61.9358V23.6465H62.1207L68.4754 16.4115H71.3531L65.2426 23.2322L71.3753 31.562H68.6234L63.7261 24.7931L61.9358 26.8497V31.562H59.6499ZM74.0182 31.562V20.1991H76.2301V31.562H74.0182ZM75.1352 18.4459C74.7505 18.4459 74.4201 18.3176 74.1439 18.0612C73.8727 17.7998 73.737 17.4891 73.737 17.1291C73.737 16.7641 73.8727 16.4534 74.1439 16.1969C74.4201 15.9356 74.7505 15.8049 75.1352 15.8049C75.5199 15.8049 75.8479 15.9356 76.1191 16.1969C76.3953 16.4534 76.5334 16.7641 76.5334 17.1291C76.5334 17.4891 76.3953 17.7998 76.1191 18.0612C75.8479 18.3176 75.5199 18.4459 75.1352 18.4459ZM81.4177 24.8153V31.562H79.2058V20.1991H81.329V22.0486H81.4695C81.7309 21.4469 82.1403 20.9636 82.6975 20.5986C83.2598 20.2336 83.9675 20.0512 84.8207 20.0512C85.595 20.0512 86.2731 20.2139 86.8551 20.5394C87.437 20.86 87.8883 21.3384 88.2089 21.9746C88.5294 22.6108 88.6897 23.3974 88.6897 24.3345V31.562H86.4778V24.6008C86.4778 23.7772 86.2633 23.1336 85.8342 22.67C85.4051 22.2014 84.8158 21.9672 84.0661 21.9672C83.5532 21.9672 83.097 22.0781 82.6975 22.3001C82.303 22.522 81.9898 22.8475 81.758 23.2766C81.5312 23.7007 81.4177 24.2136 81.4177 24.8153ZM96.4203 36.0599C95.5178 36.0599 94.7411 35.9415 94.0901 35.7048C93.444 35.468 92.9163 35.1549 92.5069 34.7653C92.0976 34.3756 91.7918 33.949 91.5896 33.4855L93.4908 32.7013C93.624 32.9183 93.8016 33.1476 94.0235 33.3893C94.2503 33.6359 94.5561 33.8455 94.9408 34.0181C95.3304 34.1907 95.831 34.277 96.4425 34.277C97.281 34.277 97.9739 34.0723 98.5213 33.663C99.0687 33.2586 99.3425 32.6125 99.3425 31.7248V29.4907H99.2019C99.0687 29.7323 98.8764 30.0011 98.6249 30.297C98.3783 30.5929 98.038 30.8494 97.604 31.0664C97.17 31.2834 96.6053 31.3919 95.9099 31.3919C95.0123 31.3919 94.2035 31.1823 93.4834 30.7631C92.7683 30.3389 92.2012 29.7151 91.782 28.8915C91.3677 28.0629 91.1606 27.0445 91.1606 25.8362C91.1606 24.6279 91.3652 23.5922 91.7746 22.7291C92.1888 21.8661 92.756 21.2052 93.476 20.7466C94.1961 20.283 95.0123 20.0512 95.9247 20.0512C96.63 20.0512 97.1996 20.1695 97.6336 20.4063C98.0676 20.6381 98.4054 20.9093 98.6471 21.22C98.8937 21.5307 99.0835 21.8044 99.2167 22.0412H99.3794V20.1991H101.547V31.8136C101.547 32.7901 101.32 33.5915 100.866 34.2178C100.413 34.8442 99.7986 35.3078 99.0244 35.6086C98.255 35.9094 97.387 36.0599 96.4203 36.0599ZM96.3982 29.5573C97.0344 29.5573 97.5719 29.4093 98.0109 29.1134C98.4547 28.8126 98.7901 28.3835 99.017 27.8262C99.2487 27.264 99.3646 26.5908 99.3646 25.8066C99.3646 25.0422 99.2512 24.369 99.0244 23.787C98.7975 23.2051 98.4646 22.7513 98.0257 22.4258C97.5867 22.0954 97.0442 21.9302 96.3982 21.9302C95.7324 21.9302 95.1775 22.1028 94.7337 22.448C94.2898 22.7883 93.9544 23.2519 93.7276 23.8388C93.5056 24.4257 93.3947 25.0816 93.3947 25.8066C93.3947 26.5513 93.5081 27.2048 93.735 27.767C93.9618 28.3292 94.2972 28.7682 94.7411 29.0838C95.1899 29.3994 95.7422 29.5573 96.3982 29.5573ZM117.275 21.3384H114.966C114.878 20.8452 114.712 20.4112 114.471 20.0364C114.229 19.6616 113.933 19.3434 113.583 19.0821C113.233 18.8207 112.841 18.6234 112.407 18.4902C111.978 18.3571 111.522 18.2905 111.038 18.2905C110.165 18.2905 109.384 18.51 108.693 18.9489C108.008 19.3878 107.465 20.0314 107.066 20.8797C106.671 21.728 106.474 22.7637 106.474 23.9868C106.474 25.2197 106.671 26.2603 107.066 27.1086C107.465 27.9569 108.01 28.598 108.701 29.032C109.391 29.466 110.168 29.683 111.031 29.683C111.509 29.683 111.963 29.6189 112.392 29.4907C112.826 29.3575 113.218 29.1627 113.568 28.9063C113.918 28.6498 114.214 28.3366 114.456 27.9667C114.703 27.5919 114.873 27.1629 114.966 26.6795L117.275 26.6869C117.151 27.4316 116.912 28.1172 116.557 28.7435C116.207 29.3649 115.756 29.9025 115.203 30.3562C114.656 30.805 114.029 31.1527 113.324 31.3993C112.619 31.6459 111.85 31.7692 111.016 31.7692C109.704 31.7692 108.535 31.4585 107.51 30.8371C106.484 30.2107 105.675 29.3156 105.083 28.1517C104.496 26.9878 104.203 25.5995 104.203 23.9868C104.203 22.3691 104.499 20.9808 105.09 19.8218C105.682 18.6579 106.491 17.7653 107.517 17.1439C108.543 16.5175 109.709 16.2043 111.016 16.2043C111.82 16.2043 112.57 16.3202 113.265 16.552C113.965 16.7789 114.594 17.1143 115.151 17.5581C115.709 17.9971 116.17 18.5346 116.535 19.1708C116.9 19.8021 117.146 20.5246 117.275 21.3384ZM122.044 24.8153V31.562H119.832V16.4115H122.015V22.0486H122.155C122.422 21.437 122.828 20.9512 123.376 20.5912C123.923 20.2312 124.638 20.0512 125.521 20.0512C126.3 20.0512 126.981 20.2114 127.563 20.532C128.15 20.8526 128.604 21.331 128.924 21.9672C129.25 22.5985 129.412 23.3875 129.412 24.3345V31.562H127.2V24.6008C127.2 23.7673 126.986 23.1212 126.557 22.6626C126.128 22.199 125.531 21.9672 124.767 21.9672C124.244 21.9672 123.775 22.0781 123.361 22.3001C122.952 22.522 122.629 22.8475 122.392 23.2766C122.16 23.7007 122.044 24.2136 122.044 24.8153ZM135.671 31.8136C134.951 31.8136 134.3 31.6804 133.718 31.4141C133.136 31.1428 132.675 30.7508 132.335 30.2378C131.999 29.7249 131.831 29.0961 131.831 28.3514C131.831 27.7103 131.955 27.1826 132.201 26.7683C132.448 26.354 132.781 26.0261 133.2 25.7844C133.619 25.5428 134.088 25.3603 134.606 25.237C135.123 25.1137 135.651 25.02 136.189 24.9559C136.869 24.877 137.422 24.8128 137.846 24.7635C138.27 24.7093 138.578 24.623 138.771 24.5046C138.963 24.3862 139.059 24.1939 139.059 23.9276V23.8758C139.059 23.2297 138.877 22.7291 138.512 22.3741C138.152 22.019 137.614 21.8414 136.899 21.8414C136.154 21.8414 135.567 22.0066 135.138 22.3371C134.714 22.6626 134.421 23.0251 134.258 23.4245L132.179 22.9511C132.426 22.2606 132.786 21.7033 133.259 21.2792C133.738 20.8501 134.288 20.5394 134.909 20.3471C135.53 20.1498 136.184 20.0512 136.869 20.0512C137.323 20.0512 137.804 20.1054 138.312 20.2139C138.825 20.3175 139.303 20.5098 139.747 20.7909C140.196 21.0721 140.563 21.474 140.849 21.9968C141.135 22.5146 141.278 23.1878 141.278 24.0164V31.562H139.118V30.0085H139.029C138.886 30.2946 138.672 30.5757 138.386 30.8519C138.1 31.128 137.732 31.3574 137.284 31.5398C136.835 31.7223 136.297 31.8136 135.671 31.8136ZM136.152 30.0381C136.763 30.0381 137.286 29.9173 137.72 29.6756C138.159 29.434 138.492 29.1183 138.719 28.7287C138.951 28.3342 139.066 27.9125 139.066 27.4637V25.9989C138.988 26.0779 138.835 26.1518 138.608 26.2209C138.386 26.285 138.132 26.3417 137.846 26.391C137.56 26.4354 137.281 26.4773 137.01 26.5168C136.739 26.5513 136.512 26.5809 136.329 26.6056C135.9 26.6598 135.508 26.751 135.153 26.8793C134.803 27.0075 134.522 27.1924 134.31 27.4341C134.103 27.6708 133.999 27.9865 133.999 28.381C133.999 28.9284 134.201 29.3427 134.606 29.6238C135.01 29.9 135.525 30.0381 136.152 30.0381ZM146.436 24.8153V31.562H144.225V20.1991H146.348V22.0486H146.488C146.75 21.4469 147.159 20.9636 147.716 20.5986C148.278 20.2336 148.986 20.0512 149.839 20.0512C150.614 20.0512 151.292 20.2139 151.874 20.5394C152.456 20.86 152.907 21.3384 153.228 21.9746C153.548 22.6108 153.708 23.3974 153.708 24.3345V31.562H151.496V24.6008C151.496 23.7772 151.282 23.1336 150.853 22.67C150.424 22.2014 149.834 21.9672 149.085 21.9672C148.572 21.9672 148.116 22.0781 147.716 22.3001C147.322 22.522 147.009 22.8475 146.777 23.2766C146.55 23.7007 146.436 24.2136 146.436 24.8153ZM161.439 36.0599C160.537 36.0599 159.76 35.9415 159.109 35.7048C158.463 35.468 157.935 35.1549 157.526 34.7653C157.116 34.3756 156.811 33.949 156.608 33.4855L158.51 32.7013C158.643 32.9183 158.82 33.1476 159.042 33.3893C159.269 33.6359 159.575 33.8455 159.959 34.0181C160.349 34.1907 160.85 34.277 161.461 34.277C162.3 34.277 162.993 34.0723 163.54 33.663C164.087 33.2586 164.361 32.6125 164.361 31.7248V29.4907H164.221C164.087 29.7323 163.895 30.0011 163.644 30.297C163.397 30.5929 163.057 30.8494 162.623 31.0664C162.189 31.2834 161.624 31.3919 160.929 31.3919C160.031 31.3919 159.222 31.1823 158.502 30.7631C157.787 30.3389 157.22 29.7151 156.801 28.8915C156.386 28.0629 156.179 27.0445 156.179 25.8362C156.179 24.6279 156.384 23.5922 156.793 22.7291C157.208 21.8661 157.775 21.2052 158.495 20.7466C159.215 20.283 160.031 20.0512 160.943 20.0512C161.649 20.0512 162.218 20.1695 162.652 20.4063C163.086 20.6381 163.424 20.9093 163.666 21.22C163.912 21.5307 164.102 21.8044 164.235 22.0412H164.398V20.1991H166.566V31.8136C166.566 32.7901 166.339 33.5915 165.885 34.2178C165.431 34.8442 164.817 35.3078 164.043 35.6086C163.274 35.9094 162.406 36.0599 161.439 36.0599ZM161.417 29.5573C162.053 29.5573 162.591 29.4093 163.03 29.1134C163.473 28.8126 163.809 28.3835 164.036 27.8262C164.267 27.264 164.383 26.5908 164.383 25.8066C164.383 25.0422 164.27 24.369 164.043 23.787C163.816 23.2051 163.483 22.7513 163.044 22.4258C162.605 22.0954 162.063 21.9302 161.417 21.9302C160.751 21.9302 160.196 22.1028 159.752 22.448C159.308 22.7883 158.973 23.2519 158.746 23.8388C158.524 24.4257 158.413 25.0816 158.413 25.8066C158.413 26.5513 158.527 27.2048 158.754 27.767C158.981 28.3292 159.316 28.7682 159.76 29.0838C160.209 29.3994 160.761 29.5573 161.417 29.5573ZM174.429 31.7914C173.31 31.7914 172.346 31.5522 171.537 31.0738C170.733 30.5905 170.112 29.9123 169.673 29.0394C169.239 28.1615 169.022 27.1333 169.022 25.9546C169.022 24.7906 169.239 23.7648 169.673 22.8771C170.112 21.9894 170.723 21.2965 171.507 20.7983C172.296 20.3002 173.219 20.0512 174.274 20.0512C174.915 20.0512 175.537 20.1572 176.138 20.3693C176.74 20.5813 177.28 20.9142 177.758 21.368C178.237 21.8217 178.614 22.411 178.89 23.136C179.166 23.8561 179.305 24.7315 179.305 25.7622V26.5464H170.272V24.8893H177.137C177.137 24.3073 177.019 23.792 176.782 23.3432C176.545 22.8894 176.212 22.5319 175.783 22.2705C175.359 22.0091 174.861 21.8784 174.289 21.8784C173.668 21.8784 173.125 22.0313 172.661 22.3371C172.203 22.6379 171.848 23.0325 171.596 23.5207C171.35 24.004 171.226 24.5293 171.226 25.0964V26.391C171.226 27.1505 171.359 27.7966 171.626 28.3292C171.897 28.8619 172.274 29.2687 172.758 29.5499C173.241 29.826 173.806 29.9641 174.452 29.9641C174.871 29.9641 175.253 29.9049 175.598 29.7866C175.944 29.6633 176.242 29.4808 176.493 29.2392C176.745 28.9975 176.937 28.6991 177.07 28.344L179.164 28.7213C178.996 29.3378 178.696 29.8778 178.262 30.3414C177.832 30.8001 177.292 31.1576 176.641 31.4141C175.995 31.6656 175.258 31.7914 174.429 31.7914Z" fill="white"/>
<rect width="48" height="48" rx="11.562" fill="#0A100F"/>
<path d="M36.2054 20.6685L30.6817 15.1448L26.7911 20.2969L31.6841 25.1898C32.2314 25.7371 33.1187 25.7371 33.666 25.1898L36.2054 22.6505C36.7527 22.1031 36.7527 21.2158 36.2054 20.6685Z" fill="url(#paint0_linear_555_1607)"/>
<path d="M30.8808 16.6264L21.7132 24.7639C21.1526 25.2615 20.2663 25.0293 20.0218 24.3208L18.4745 19.8374C18.2573 19.2083 18.4154 18.5106 18.8824 18.0365L25.6619 11.1543C26.0087 10.8022 26.578 10.8066 26.9193 11.164L30.9328 15.3663C31.2755 15.7252 31.2519 16.2969 30.8808 16.6264Z" fill="#69CE9A"/>
<path d="M11.6771 27.3075L17.2009 32.8313L21.0914 27.6791L16.1985 22.7862C15.6512 22.2389 14.7638 22.2389 14.2165 22.7862L11.6771 25.3256C11.1298 25.8729 11.1298 26.7602 11.6771 27.3075Z" fill="url(#paint1_linear_555_1607)"/>
<path d="M17.0017 31.3497L26.1694 23.2121C26.7299 22.7146 27.6162 22.9468 27.8607 23.6553L29.4081 28.1387C29.6252 28.7677 29.4671 29.4655 29.0001 29.9396L22.2206 36.8218C21.8738 37.1738 21.3045 37.1694 20.9632 36.812L16.9498 32.6097C16.607 32.2508 16.6306 31.6791 17.0017 31.3497Z" fill="#69CE9A"/>
<defs>
<linearGradient id="paint0_linear_555_1607" x1="28.421" y1="17.4054" x2="34.9357" y2="23.9201" gradientUnits="userSpaceOnUse">
<stop stop-color="#428767"/>
<stop offset="1" stop-color="#428767" stop-opacity="0.25"/>
</linearGradient>
<linearGradient id="paint1_linear_555_1607" x1="19.4615" y1="30.5706" x2="12.9468" y2="24.0559" gradientUnits="userSpaceOnUse">
<stop stop-color="#428767"/>
<stop offset="1" stop-color="#428767" stop-opacity="0.25"/>
</linearGradient>
</defs>
</svg>
