<svg width="89" height="24" viewBox="0 0 89 24" fill="none" xmlns="http://www.w3.org/2000/svg">
<path d="M16.8317 10.1144H10.4012L8.42173 4.00024L6.43052 10.1144L6.10352e-05 10.1027L5.20065 13.886L3.20943 20.0002L8.41002 16.2169L13.6106 20.0002L11.6311 13.886L16.8317 10.1144Z" fill="#00B67A"/>
<path d="M12.0762 15.2689L11.6311 13.8867L8.42175 16.2176L12.0762 15.2689Z" fill="#005128"/>
<path d="M21.6043 7.61364V6.36364H30.3316V7.61364H26.6725V18H25.2634V7.61364H21.6043ZM30.9383 18V9.27273H32.2337V10.5909H32.3246C32.4837 10.1591 32.7716 9.80871 33.1883 9.53977C33.6049 9.27083 34.0746 9.13636 34.5973 9.13636C34.6958 9.13636 34.8189 9.13826 34.9667 9.14205C35.1144 9.14583 35.2261 9.15152 35.3019 9.15909V10.5227C35.2564 10.5114 35.1523 10.4943 34.9894 10.4716C34.8303 10.4451 34.6617 10.4318 34.4837 10.4318C34.0595 10.4318 33.6807 10.5208 33.3473 10.6989C33.0178 10.8731 32.7564 11.1155 32.5633 11.4261C32.3739 11.733 32.2792 12.0833 32.2792 12.4773V18H30.9383ZM41.9114 14.4318V9.27273H43.2523V18H41.9114V16.5227H41.8205C41.6159 16.9659 41.2977 17.3428 40.8659 17.6534C40.4341 17.9602 39.8886 18.1136 39.2296 18.1136C38.6841 18.1136 38.1993 17.9943 37.775 17.7557C37.3508 17.5133 37.0174 17.1496 36.775 16.6648C36.5326 16.1761 36.4114 15.5606 36.4114 14.8182V9.27273H37.7523V14.7273C37.7523 15.3636 37.9303 15.8712 38.2864 16.25C38.6462 16.6288 39.1046 16.8182 39.6614 16.8182C39.9947 16.8182 40.3337 16.733 40.6784 16.5625C41.0269 16.392 41.3186 16.1307 41.5534 15.7784C41.7921 15.4261 41.9114 14.9773 41.9114 14.4318ZM51.4101 11.2273L50.2055 11.5682C50.1298 11.3674 50.018 11.1723 49.8703 10.983C49.7264 10.7898 49.5294 10.6307 49.2794 10.5057C49.0294 10.3807 48.7093 10.3182 48.3192 10.3182C47.7851 10.3182 47.34 10.4413 46.9839 10.6875C46.6317 10.9299 46.4555 11.2386 46.4555 11.6136C46.4555 11.947 46.5767 12.2102 46.8192 12.4034C47.0616 12.5966 47.4404 12.7576 47.9555 12.8864L49.251 13.2045C50.0313 13.3939 50.6127 13.6837 50.9953 14.0739C51.3779 14.4602 51.5692 14.9583 51.5692 15.5682C51.5692 16.0682 51.4252 16.5152 51.1373 16.9091C50.8533 17.303 50.4555 17.6136 49.9442 17.8409C49.4328 18.0682 48.8381 18.1818 48.1601 18.1818C47.2699 18.1818 46.5332 17.9886 45.9498 17.6023C45.3665 17.2159 44.9972 16.6515 44.8419 15.9091L46.1146 15.5909C46.2358 16.0606 46.465 16.4129 46.8021 16.6477C47.143 16.8826 47.5881 17 48.1373 17C48.7623 17 49.2586 16.8674 49.626 16.6023C49.9972 16.3333 50.1828 16.0114 50.1828 15.6364C50.1828 15.3333 50.0767 15.0795 49.8646 14.875C49.6525 14.6667 49.3267 14.5114 48.8873 14.4091L47.4328 14.0682C46.6336 13.8788 46.0464 13.5852 45.6714 13.1875C45.3002 12.786 45.1146 12.2841 45.1146 11.6818C45.1146 11.1894 45.2529 10.7538 45.5294 10.375C45.8097 9.99621 46.1904 9.69886 46.6714 9.48295C47.1563 9.26705 47.7055 9.15909 48.3192 9.15909C49.1828 9.15909 49.8608 9.34848 50.3533 9.72727C50.8495 10.1061 51.2017 10.6061 51.4101 11.2273ZM56.9031 9.27273V10.4091H52.3804V9.27273H56.9031ZM53.6985 7.18182H55.0394V15.5C55.0394 15.8788 55.0944 16.1629 55.2042 16.3523C55.3179 16.5379 55.4618 16.6629 55.636 16.7273C55.8141 16.7879 56.0016 16.8182 56.1985 16.8182C56.3463 16.8182 56.4675 16.8106 56.5622 16.7955C56.6569 16.7765 56.7326 16.7614 56.7894 16.75L57.0622 17.9545C56.9713 17.9886 56.8444 18.0227 56.6815 18.0568C56.5186 18.0947 56.3122 18.1136 56.0622 18.1136C55.6834 18.1136 55.3122 18.0322 54.9485 17.8693C54.5887 17.7064 54.2894 17.4583 54.0508 17.125C53.816 16.7917 53.6985 16.3712 53.6985 15.8636V7.18182ZM58.4401 21.2727V9.27273H59.7356V10.6591H59.8947C59.9932 10.5076 60.1295 10.3144 60.3038 10.0795C60.4818 9.84091 60.7356 9.62879 61.0651 9.44318C61.3985 9.25379 61.8492 9.15909 62.4174 9.15909C63.1522 9.15909 63.8 9.3428 64.3606 9.71023C64.9212 10.0777 65.3587 10.5985 65.6731 11.2727C65.9875 11.947 66.1447 12.7424 66.1447 13.6591C66.1447 14.5833 65.9875 15.3845 65.6731 16.0625C65.3587 16.7367 64.9231 17.2595 64.3663 17.6307C63.8094 17.9981 63.1674 18.1818 62.4401 18.1818C61.8795 18.1818 61.4307 18.089 61.0935 17.9034C60.7564 17.714 60.4969 17.5 60.3151 17.2614C60.1333 17.0189 59.9932 16.8182 59.8947 16.6591H59.781V21.2727H58.4401ZM59.7583 13.6364C59.7583 14.2955 59.8549 14.8769 60.0481 15.3807C60.2413 15.8807 60.5235 16.2727 60.8947 16.5568C61.2659 16.8371 61.7204 16.9773 62.2583 16.9773C62.8189 16.9773 63.2867 16.8295 63.6617 16.5341C64.0405 16.2348 64.3246 15.8333 64.514 15.3295C64.7072 14.822 64.8038 14.2576 64.8038 13.6364C64.8038 13.0227 64.7091 12.4697 64.5197 11.9773C64.3341 11.4811 64.0519 11.089 63.6731 10.8011C63.2981 10.5095 62.8265 10.3636 62.2583 10.3636C61.7129 10.3636 61.2545 10.5019 60.8833 10.7784C60.5121 11.0511 60.2318 11.4337 60.0424 11.9261C59.853 12.4148 59.7583 12.9848 59.7583 13.6364ZM67.7101 18V9.27273H69.051V18H67.7101ZM68.3919 7.81818C68.1306 7.81818 67.9052 7.72917 67.7158 7.55114C67.5302 7.37311 67.4374 7.15909 67.4374 6.90909C67.4374 6.65909 67.5302 6.44508 67.7158 6.26705C67.9052 6.08902 68.1306 6 68.3919 6C68.6533 6 68.8768 6.08902 69.0624 6.26705C69.2518 6.44508 69.3465 6.65909 69.3465 6.90909C69.3465 7.15909 69.2518 7.37311 69.0624 7.55114C68.8768 7.72917 68.6533 7.81818 68.3919 7.81818ZM72.3679 6.36364V18H71.027V6.36364H72.3679ZM77.8893 18.1818C77.1015 18.1818 76.4102 17.9943 75.8155 17.6193C75.2246 17.2443 74.7624 16.7197 74.4291 16.0455C74.0996 15.3712 73.9348 14.5833 73.9348 13.6818C73.9348 12.7727 74.0996 11.9792 74.4291 11.3011C74.7624 10.6231 75.2246 10.0966 75.8155 9.72159C76.4102 9.34659 77.1015 9.15909 77.8893 9.15909C78.6772 9.15909 79.3666 9.34659 79.9575 9.72159C80.5522 10.0966 81.0143 10.6231 81.3439 11.3011C81.6772 11.9792 81.8439 12.7727 81.8439 13.6818C81.8439 14.5833 81.6772 15.3712 81.3439 16.0455C81.0143 16.7197 80.5522 17.2443 79.9575 17.6193C79.3666 17.9943 78.6772 18.1818 77.8893 18.1818ZM77.8893 16.9773C78.4878 16.9773 78.9802 16.8239 79.3666 16.517C79.753 16.2102 80.039 15.8068 80.2246 15.3068C80.4102 14.8068 80.503 14.2652 80.503 13.6818C80.503 13.0985 80.4102 12.5549 80.2246 12.0511C80.039 11.5473 79.753 11.1402 79.3666 10.8295C78.9802 10.5189 78.4878 10.3636 77.8893 10.3636C77.2908 10.3636 76.7984 10.5189 76.4121 10.8295C76.0257 11.1402 75.7397 11.5473 75.5541 12.0511C75.3685 12.5549 75.2757 13.0985 75.2757 13.6818C75.2757 14.2652 75.3685 14.8068 75.5541 15.3068C75.7397 15.8068 76.0257 16.2102 76.4121 16.517C76.7984 16.8239 77.2908 16.9773 77.8893 16.9773ZM87.2062 9.27273V10.4091H82.6835V9.27273H87.2062ZM84.0017 7.18182H85.3426V15.5C85.3426 15.8788 85.3975 16.1629 85.5073 16.3523C85.621 16.5379 85.7649 16.6629 85.9392 16.7273C86.1172 16.7879 86.3047 16.8182 86.5017 16.8182C86.6494 16.8182 86.7706 16.8106 86.8653 16.7955C86.96 16.7765 87.0358 16.7614 87.0926 16.75L87.3653 17.9545C87.2744 17.9886 87.1475 18.0227 86.9846 18.0568C86.8217 18.0947 86.6153 18.1136 86.3653 18.1136C85.9865 18.1136 85.6153 18.0322 85.2517 17.8693C84.8918 17.7064 84.5926 17.4583 84.3539 17.125C84.1191 16.7917 84.0017 16.3712 84.0017 15.8636V7.18182Z" fill="#00CF8A"/>
</svg>
