<svg width="20" height="20" viewBox="0 0 20 20" fill="none" xmlns="http://www.w3.org/2000/svg">
<g clip-path="url(#clip0_13_2)">
<path d="M19.565 8.94786L11.0521 0.435C10.7621 0.145 10.3807 0 10 0C9.61929 0 9.23786 0.145 8.94786 0.435L0.435 8.94786C0.145 9.23786 0 9.61857 0 10C0 10.3814 0.145 10.7621 0.435 11.0521L8.94714 19.5643C9.23786 19.855 9.61929 20 10 20C10.3807 20 10.7621 19.855 11.0521 19.565L19.5643 11.0529C19.855 10.7621 20 10.3814 20 10C20 9.61857 19.855 9.23786 19.565 8.94786ZM13.5714 11.4286H6.42857V8.57143H13.5714V11.4286Z" fill="#545454"/>
</g>
<defs>
<clipPath id="clip0_13_2">
<rect width="20" height="20" fill="white"/>
</clipPath>
</defs>
</svg>
